<?xml version="1.0" encoding="utf-8"?>
<!-- Generator: Adobe Illustrator 26.5.0, SVG Export Plug-In . SVG Version: 6.00 Build 0)  -->
<svg version="1.1" id="Layer_1" xmlns="http://www.w3.org/2000/svg" xmlns:xlink="http://www.w3.org/1999/xlink" x="0px" y="0px"
	 viewBox="0 0 1080 1080" style="enable-background:new 0 0 1080 1080;" xml:space="preserve">
<style type="text/css">
	.st0{fill:url(#SVGID_1_);stroke:url(#SVGID_00000008110585464996131180000015678726459699404705_);stroke-miterlimit:10;}
	.st1{fill:#0099CC;stroke:url(#SVGID_00000049939941893294377890000016854886606006721213_);stroke-miterlimit:10;}
	.st2{fill:#0099CC;stroke:url(#SVGID_00000067204306987358810190000004068385287498596493_);stroke-miterlimit:10;}
	.st3{fill:#FFFFFF;}
	
		.st4{fill:url(#SVGID_00000014599779361023099510000006658409958217488281_);stroke:url(#SVGID_00000143592747486474499140000001095982101061255835_);stroke-miterlimit:10;}
	.st5{fill:#0099CC;stroke:url(#SVGID_00000152243366527360633160000012586011497768917178_);stroke-miterlimit:10;}
	.st6{fill:#0099CC;stroke:url(#SVGID_00000024722177277342683290000018178424488624333205_);stroke-miterlimit:10;}
</style>
<g>
	
		<radialGradient id="SVGID_1_" cx="620.8275" cy="691.938" r="311.9732" gradientTransform="matrix(1 0 0 0.4827 0 357.9601)" gradientUnits="userSpaceOnUse">
		<stop  offset="0.5259" style="stop-color:#00A5FF"/>
		<stop  offset="0.6214" style="stop-color:#24B3FF"/>
		<stop  offset="0.7175" style="stop-color:#41BEFF"/>
		<stop  offset="0.8134" style="stop-color:#56C6FF"/>
		<stop  offset="0.9081" style="stop-color:#62CAFF"/>
		<stop  offset="1" style="stop-color:#66CCFF"/>
	</radialGradient>
	
		<linearGradient id="SVGID_00000036236737819666800000000008810171780031841448_" gradientUnits="userSpaceOnUse" x1="238.9869" y1="690.2213" x2="1001.7805" y2="690.2213">
		<stop  offset="7.035176e-02" style="stop-color:#1F91D3"/>
		<stop  offset="0.3644" style="stop-color:#1E8FD3"/>
		<stop  offset="0.4703" style="stop-color:#1C88D2"/>
		<stop  offset="0.5458" style="stop-color:#187DD1"/>
		<stop  offset="0.6069" style="stop-color:#136CD0"/>
		<stop  offset="0.6591" style="stop-color:#0B56CF"/>
		<stop  offset="0.7046" style="stop-color:#033BCD"/>
		<stop  offset="0.7161" style="stop-color:#0033CC"/>
	</linearGradient>
	
		<path style="fill:url(#SVGID_1_);stroke:url(#SVGID_00000036236737819666800000000008810171780031841448_);stroke-miterlimit:10;" d="
		M387.7,814.5c-3.4-25.1-6.4-54.6-11.5-83.7c-8.7-49.5-29-69.6-78.7-79.9c-17-3.5-34.3-5.8-55.3-9.3c17.9-2.8,31.8-4.8,45.7-7.1
		c58.6-9.5,81.7-32.3,90.4-90.3c4-26.6,6.5-53.3,9.5-78.6c4,28.9,7.7,59.2,12.4,89.3c1.6,10.4,5.1,20.7,9.2,30.4
		c11.9,28,31.6,39,62,35.1c17.8-2.3,35.5-5.3,53.2-8.3c119-20.1,211.1,21.1,278.6,118.6c23,33.2,44.8,67.4,69.5,99.4
		c30.5,39.6,70.3,68,118.3,84.4c1.9,0.7,3.7,1.7,8.5,3.9c-153.1,0-302.7,0-452.1,0c17.5-10.3,36.2-19,52-31.3
		c43.8-33.8,61.8-79.6,56-133.6c-4.9-46.1-47.7-87.1-101.6-99.8c-30.6-7.2-61.2-7.1-91.8,1.4c-32.1,8.9-52.3,29.4-58.7,61
		C396.5,749.9,392.4,784.1,387.7,814.5z"/>
	
		<linearGradient id="SVGID_00000012470266403076179040000006347249192116328088_" gradientUnits="userSpaceOnUse" x1="436.4011" y1="370.8814" x2="719.2701" y2="370.8814">
		<stop  offset="7.035176e-02" style="stop-color:#1F91D3"/>
		<stop  offset="0.3644" style="stop-color:#1E8FD3"/>
		<stop  offset="0.4703" style="stop-color:#1C88D2"/>
		<stop  offset="0.5458" style="stop-color:#187DD1"/>
		<stop  offset="0.6069" style="stop-color:#136CD0"/>
		<stop  offset="0.6591" style="stop-color:#0B56CF"/>
		<stop  offset="0.7046" style="stop-color:#033BCD"/>
		<stop  offset="0.7161" style="stop-color:#0033CC"/>
	</linearGradient>
	<path style="fill:#0099CC;stroke:url(#SVGID_00000012470266403076179040000006347249192116328088_);stroke-miterlimit:10;" d="
		M717.9,579.6c-35.3-21.7-73.8-32.2-113.4-37.9c-76.7-11.1-123.6-56.1-149-125.5c-30.7-83.9-22.6-165.2,19.3-243.6
		c1.6-3,3.6-5.8,6.9-10.9C561,302.2,639.5,440.9,717.9,579.6z"/>
	
		<linearGradient id="SVGID_00000141451162424056061250000014824441108202172035_" gradientUnits="userSpaceOnUse" x1="77.0605" y1="838.7604" x2="396.5191" y2="838.7604">
		<stop  offset="7.035176e-02" style="stop-color:#1F91D3"/>
		<stop  offset="0.3644" style="stop-color:#1E8FD3"/>
		<stop  offset="0.4703" style="stop-color:#1C88D2"/>
		<stop  offset="0.5458" style="stop-color:#187DD1"/>
		<stop  offset="0.6069" style="stop-color:#136CD0"/>
		<stop  offset="0.6591" style="stop-color:#0B56CF"/>
		<stop  offset="0.7046" style="stop-color:#033BCD"/>
		<stop  offset="0.7161" style="stop-color:#0033CC"/>
	</linearGradient>
	<path style="fill:#0099CC;stroke:url(#SVGID_00000141451162424056061250000014824441108202172035_);stroke-miterlimit:10;" d="
		M80.5,917.8c80.8-24,130.1-77.6,155.5-156.9c24.8,80.1,75,133.7,156.9,156.9C288.8,917.8,184.6,917.8,80.5,917.8z"/>
</g>
<g>
	<path class="st3" d="M-322.5,1018.6h-748.7c-78.3,0-141.8-63.5-141.8-141.8V203.1c0-78.3,63.5-141.8,141.8-141.8h748.7
		c78.3,0,141.8,63.5,141.8,141.8v673.7C-180.8,955.1-244.3,1018.6-322.5,1018.6z"/>
	<g>
		
			<radialGradient id="SVGID_00000145055258233047431920000015321556934947718304_" cx="-599.4988" cy="692.938" r="311.9732" gradientTransform="matrix(1 0 0 0.4827 0 358.4774)" gradientUnits="userSpaceOnUse">
			<stop  offset="0.5259" style="stop-color:#00A5FF"/>
			<stop  offset="0.6214" style="stop-color:#24B3FF"/>
			<stop  offset="0.7175" style="stop-color:#41BEFF"/>
			<stop  offset="0.8134" style="stop-color:#56C6FF"/>
			<stop  offset="0.9081" style="stop-color:#62CAFF"/>
			<stop  offset="1" style="stop-color:#66CCFF"/>
		</radialGradient>
		
			<linearGradient id="SVGID_00000125569732424414569220000017753358558413003909_" gradientUnits="userSpaceOnUse" x1="-981.3394" y1="691.2213" x2="-218.5458" y2="691.2213">
			<stop  offset="7.035176e-02" style="stop-color:#1F91D3"/>
			<stop  offset="0.3644" style="stop-color:#1E8FD3"/>
			<stop  offset="0.4703" style="stop-color:#1C88D2"/>
			<stop  offset="0.5458" style="stop-color:#187DD1"/>
			<stop  offset="0.6069" style="stop-color:#136CD0"/>
			<stop  offset="0.6591" style="stop-color:#0B56CF"/>
			<stop  offset="0.7046" style="stop-color:#033BCD"/>
			<stop  offset="0.7161" style="stop-color:#0033CC"/>
		</linearGradient>
		
			<path style="fill:url(#SVGID_00000145055258233047431920000015321556934947718304_);stroke:url(#SVGID_00000125569732424414569220000017753358558413003909_);stroke-miterlimit:10;" d="
			M-832.7,815.5c-3.4-25.1-6.4-54.6-11.5-83.7c-8.7-49.5-29-69.6-78.7-79.9c-17-3.5-34.3-5.8-55.3-9.3c17.9-2.8,31.8-4.8,45.7-7.1
			c58.6-9.5,81.7-32.3,90.4-90.3c4-26.6,6.5-53.3,9.5-78.6c4,28.9,7.7,59.2,12.4,89.3c1.6,10.4,5.1,20.7,9.2,30.4
			c11.9,28,31.6,39,62,35.1c17.8-2.3,35.5-5.3,53.2-8.3c119-20.1,211.1,21.1,278.6,118.6c23,33.2,44.8,67.4,69.5,99.4
			c30.5,39.6,70.3,68,118.3,84.4c1.9,0.7,3.7,1.7,8.5,3.9c-153.1,0-302.7,0-452.1,0c17.5-10.3,36.2-19,52-31.3
			c43.8-33.8,61.8-79.6,56-133.6c-4.9-46.1-47.7-87.1-101.6-99.8c-30.6-7.2-61.2-7.1-91.8,1.4c-32.1,8.9-52.3,29.4-58.7,61
			C-823.8,750.9-827.9,785.1-832.7,815.5z"/>
		
			<linearGradient id="SVGID_00000062912492675824841170000006871016607196464019_" gradientUnits="userSpaceOnUse" x1="-783.9252" y1="371.8814" x2="-501.0562" y2="371.8814">
			<stop  offset="7.035176e-02" style="stop-color:#1F91D3"/>
			<stop  offset="0.3644" style="stop-color:#1E8FD3"/>
			<stop  offset="0.4703" style="stop-color:#1C88D2"/>
			<stop  offset="0.5458" style="stop-color:#187DD1"/>
			<stop  offset="0.6069" style="stop-color:#136CD0"/>
			<stop  offset="0.6591" style="stop-color:#0B56CF"/>
			<stop  offset="0.7046" style="stop-color:#033BCD"/>
			<stop  offset="0.7161" style="stop-color:#0033CC"/>
		</linearGradient>
		<path style="fill:#0099CC;stroke:url(#SVGID_00000062912492675824841170000006871016607196464019_);stroke-miterlimit:10;" d="
			M-502.4,580.6c-35.3-21.7-73.8-32.2-113.4-37.9c-76.7-11.1-123.6-56.1-149-125.5c-30.7-83.9-22.6-165.2,19.3-243.6
			c1.6-3,3.6-5.8,6.9-10.9C-659.3,303.2-580.9,441.9-502.4,580.6z"/>
		
			<linearGradient id="SVGID_00000106857498491544848630000006218020234609389448_" gradientUnits="userSpaceOnUse" x1="-1143.2657" y1="839.7604" x2="-823.8073" y2="839.7604">
			<stop  offset="7.035176e-02" style="stop-color:#1F91D3"/>
			<stop  offset="0.3644" style="stop-color:#1E8FD3"/>
			<stop  offset="0.4703" style="stop-color:#1C88D2"/>
			<stop  offset="0.5458" style="stop-color:#187DD1"/>
			<stop  offset="0.6069" style="stop-color:#136CD0"/>
			<stop  offset="0.6591" style="stop-color:#0B56CF"/>
			<stop  offset="0.7046" style="stop-color:#033BCD"/>
			<stop  offset="0.7161" style="stop-color:#0033CC"/>
		</linearGradient>
		<path style="fill:#0099CC;stroke:url(#SVGID_00000106857498491544848630000006218020234609389448_);stroke-miterlimit:10;" d="
			M-1139.8,918.8c80.8-24,130.1-77.6,155.5-156.9c24.8,80.1,75,133.7,156.9,156.9C-931.5,918.8-1035.7,918.8-1139.8,918.8z"/>
	</g>
</g>
</svg>
